<svg width="422" height="425" viewBox="0 0 422 425" fill="none" xmlns="http://www.w3.org/2000/svg">
<mask id="mask0_458_4" style="mask-type:luminance" maskUnits="userSpaceOnUse" x="0" y="0" width="422" height="425">
<path d="M0 0H421.74V424.344H0V0Z" fill="white"/>
</mask>
<g mask="url(#mask0_458_4)">
<path d="M421.724 148.307C422.005 157.656 419.016 167.557 414.896 176.807C405.297 198.37 388.766 217.75 369.354 232.615C359.781 239.943 349.755 246.021 339.448 250.979C355.375 258.807 370.307 268.542 383.63 280.083C399.88 294.167 415.781 311.99 419.115 331.349C420.354 338.547 420.453 348.865 414.198 353.333C408.917 357.104 401.078 354.615 394.776 351.865C390.438 349.969 383.49 345.625 378.839 346.828C370.964 348.88 381.318 355.099 384.88 357.417C389.87 360.667 396.469 364.203 397.995 369.807C399.938 376.964 392.125 381.672 386.302 384.224C377.734 387.984 367.432 388.906 357.313 388.547C333.729 387.708 309.573 379.62 288.531 367.172C263.604 352.432 244.38 332.563 230.177 310.401C222.693 335.313 209.875 359.406 190.318 380.266C173.594 398.099 152.667 412.625 130.255 420.026C120.641 423.203 110.495 425.193 101.219 423.984C94.9167 423.167 86.0938 420.833 85.9584 413.412C85.8542 407.609 91.1979 402.365 95.0834 397.849C97.8542 394.63 106.057 385.76 97.9271 386C93.1198 386.141 87.6667 392.255 84.0313 395.287C78.75 399.688 71.9219 404.276 65.7969 402.135C58.5417 399.594 55.75 389.656 54.9271 382.401C52.7084 362.885 62.9896 341.323 74.6511 323.255C84.2136 308.448 95.8281 294.927 108.927 282.953C97.6459 281.078 86.3125 278.047 75.0781 273.688C52.2813 264.844 30.9844 250.865 15.7396 232.849C9.20314 225.12 3.55731 216.453 1.21356 207.396C-0.380191 201.245 -1.51561 192.193 5.31773 189.292C10.6563 187.021 17.5156 190.021 23.1615 191.932C27.1823 193.302 38.474 197.594 35.2136 190.135C33.2865 185.734 25.5729 182.964 21.4011 180.724C15.3438 177.469 8.53648 172.854 8.23439 166.37C7.88023 158.693 16.0521 152.385 22.474 148.912C39.75 139.563 63.5886 141.031 84.7031 145.094C111.141 150.182 136.599 160.802 159.422 175.531C160.38 176.146 161.302 176.807 162.25 177.432C151.078 156.969 143.458 133.849 141.328 108.479C139.276 84.1146 142.505 58.849 152.016 37.2448C156.094 27.9792 161.406 19.1094 168.516 13.0313C173.354 8.89588 180.99 3.90629 186.589 8.77609C190.969 12.5834 191.286 20.0625 192.036 25.974C192.573 30.1875 193.667 42.2188 198.938 36.0209C202.052 32.3542 201.161 24.2136 201.344 19.4844C201.609 12.6094 202.776 4.46359 208.474 1.349C215.219 -2.33329 224.469 2.24484 230.406 6.48963C246.38 17.9167 255.51 39.9896 261.12 60.75C268.141 86.7396 269.76 114.281 266.526 141.245C265.828 147.089 264.922 152.88 263.875 158.635C281.068 139.573 301.49 123.458 324.135 111.849C343.271 102.037 365.75 93.9584 384.948 98.1042C392.089 99.6459 401.698 103.412 403.5 110.88C405.026 117.193 399.781 123.531 394.875 128.349C391.5 131.662 384.87 136.479 384.25 141.245C383.208 149.318 392.849 142.042 396.328 139.599C401.208 136.182 406.958 131.391 412.719 132.068C420.089 132.943 421.531 141.953 421.724 148.307Z" fill="#F51E51"/>
</g>
<path d="M353.599 179.979C353.781 186.13 351.813 192.651 349.104 198.734C342.787 212.932 331.906 225.682 319.125 235.469C312.828 240.297 306.229 244.297 299.443 247.557C309.927 252.714 319.755 259.12 328.526 266.714C339.219 275.984 349.682 287.719 351.88 300.458C352.693 305.193 352.76 311.984 348.646 314.927C345.167 317.412 340.01 315.766 335.859 313.958C333 312.714 328.432 309.849 325.37 310.646C320.188 311.995 327 316.089 329.349 317.615C332.63 319.75 336.974 322.078 337.974 325.766C339.26 330.479 334.115 333.578 330.281 335.26C324.646 337.729 317.865 338.339 311.203 338.104C295.682 337.552 279.781 332.229 265.932 324.031C249.521 314.333 236.875 301.255 227.521 286.667C222.599 303.063 214.162 318.922 201.292 332.651C190.287 344.385 176.51 353.948 161.76 358.818C155.432 360.912 148.75 362.224 142.646 361.427C138.5 360.885 132.693 359.354 132.604 354.469C132.537 350.646 136.052 347.198 138.609 344.229C140.432 342.104 145.833 336.266 140.479 336.427C137.318 336.516 133.729 340.542 131.333 342.537C127.854 345.438 123.359 348.458 119.333 347.047C114.557 345.375 112.719 338.833 112.177 334.057C110.719 321.208 117.484 307.021 125.162 295.13C131.453 285.385 139.099 276.484 147.719 268.604C140.292 267.37 132.839 265.375 125.438 262.505C110.438 256.688 96.4219 247.484 86.3855 235.625C82.0834 230.537 78.3698 224.833 76.823 218.87C75.7761 214.823 75.0261 208.865 79.5261 206.953C83.0417 205.464 87.5573 207.432 91.2709 208.698C93.9167 209.594 101.349 212.417 99.2032 207.516C97.9376 204.615 92.8594 202.792 90.1146 201.318C86.1251 199.177 81.6407 196.135 81.448 191.87C81.2136 186.818 86.5886 182.667 90.8178 180.38C102.188 174.224 117.88 175.193 131.776 177.865C149.177 181.219 165.932 188.203 180.953 197.901C181.583 198.307 182.193 198.734 182.813 199.156C175.464 185.682 170.448 170.464 169.042 153.766C167.698 137.734 169.823 121.099 176.078 106.88C178.766 100.787 182.26 94.9428 186.943 90.9428C190.12 88.224 195.146 84.9376 198.839 88.1459C201.719 90.6511 201.927 95.573 202.422 99.4636C202.776 102.24 203.495 110.156 206.964 106.073C209.01 103.662 208.427 98.3073 208.547 95.1928C208.724 90.6667 209.49 85.3021 213.24 83.2553C217.677 80.8282 223.766 83.8438 227.677 86.6407C238.193 94.1615 244.203 108.688 247.891 122.349C252.51 139.458 253.573 157.583 251.448 175.333C250.99 179.177 250.391 182.99 249.703 186.776C261.021 174.229 274.464 163.625 289.37 155.984C301.964 149.526 316.755 144.208 329.391 146.938C334.094 147.953 340.417 150.432 341.604 155.349C342.609 159.5 339.156 163.672 335.927 166.844C333.703 169.026 329.339 172.198 328.932 175.333C328.245 180.646 334.589 175.854 336.88 174.25C340.094 172 343.88 168.844 347.672 169.292C352.521 169.87 353.469 175.797 353.599 179.979Z" fill="#FFC5D3"/>
<path d="M248.589 205.542C243.646 204.365 238.693 207.411 237.511 212.349C236.547 216.401 238.422 220.458 241.849 222.443C239.047 232.359 233.88 241.365 226.552 249.089C224.354 251.406 227.938 254.818 230.125 252.505C238.068 244.135 243.578 234.391 246.578 223.667C250.688 223.615 254.401 220.802 255.396 216.62C256.578 211.677 253.526 206.724 248.589 205.542ZM210.484 243.557C202.63 245.479 194.75 245.495 187.156 243.599C187.141 240.599 185.172 237.828 182.141 236.943C178.443 235.859 174.563 237.979 173.479 241.677C172.396 245.375 174.516 249.255 178.214 250.344C181.349 251.26 184.599 249.87 186.188 247.182C194.38 249.245 202.88 249.281 211.391 247.203C213.734 246.63 212.833 242.979 210.484 243.557ZM205.078 209.224C208.74 207.552 211.037 203.63 210.448 199.437C209.734 194.323 205.011 190.76 199.901 191.474C194.787 192.187 191.219 196.911 191.938 202.021C192.537 206.354 196.021 209.557 200.177 210.01C202.172 221.151 206.807 231.547 214.031 240.786C216.021 243.339 219.979 240.229 217.979 237.672C211.313 229.146 206.948 219.536 205.078 209.224ZM224.896 227.406C225.943 230.479 221.177 232.109 220.141 229.042C216.375 217.937 215.438 206.589 217.229 195.422C213.458 193.62 211.229 189.443 212.094 185.156C213.104 180.094 218.031 176.818 223.089 177.828C228.156 178.844 231.432 183.771 230.417 188.828C229.589 192.979 226.13 195.927 222.12 196.297C220.479 206.646 221.422 217.156 224.896 227.406Z" fill="white"/>
</svg>
