<svg width="362" height="124" viewBox="0 0 362 124" fill="none" xmlns="http://www.w3.org/2000/svg">
<mask id="mask0_458_13" style="mask-type:luminance" maskUnits="userSpaceOnUse" x="0" y="0" width="124" height="124">
<path d="M0 0H123.245V124H0V0Z" fill="white"/>
</mask>
<g mask="url(#mask0_458_13)">
<path d="M123.245 43.3437C123.323 46.0781 122.448 48.9687 121.245 51.6718C118.443 57.9739 113.609 63.6354 107.937 67.9791C105.141 70.125 102.208 71.901 99.1979 73.3489C103.854 75.6354 108.219 78.4791 112.109 81.8541C116.859 85.9687 121.505 91.177 122.479 96.8385C122.844 98.9375 122.87 101.953 121.042 103.26C119.5 104.365 117.208 103.635 115.365 102.833C114.099 102.276 112.068 101.01 110.708 101.359C108.406 101.958 111.432 103.776 112.474 104.453C113.932 105.406 115.865 106.437 116.307 108.073C116.875 110.167 114.594 111.542 112.891 112.286C110.385 113.385 107.375 113.656 104.422 113.552C97.526 113.307 90.4687 110.943 84.3177 107.307C77.0312 102.995 71.4167 97.1927 67.2656 90.7135C65.0781 97.9948 61.3333 105.036 55.6198 111.13C50.7292 116.344 44.6146 120.589 38.0625 122.75C35.2552 123.677 32.2916 124.26 29.5781 123.906C27.7344 123.667 25.1614 122.984 25.1198 120.818C25.0885 119.12 26.651 117.589 27.7864 116.271C28.5937 115.328 30.9948 112.74 28.6146 112.807C27.2135 112.849 25.6198 114.635 24.5573 115.521C23.0104 116.807 21.0156 118.151 19.2239 117.521C17.1041 116.781 16.2916 113.875 16.0469 111.755C15.401 106.052 18.4062 99.75 21.8125 94.4687C24.6094 90.1458 28 86.1927 31.8333 82.6927C28.5312 82.1458 25.2239 81.2604 21.9375 79.9843C15.276 77.401 9.05207 73.3177 4.59894 68.052C2.68748 65.7916 1.03644 63.2604 0.354149 60.6145C-0.1146 58.8125 -0.442726 56.1666 1.55207 55.3229C3.11457 54.6562 5.11977 55.5312 6.76561 56.0937C7.94269 56.4948 11.2448 57.75 10.2916 55.5677C9.72394 54.2812 7.47394 53.4739 6.25519 52.8177C4.48436 51.8645 2.49477 50.5156 2.40623 48.625C2.30207 46.3802 4.68748 44.5364 6.56769 43.5208C11.6146 40.7864 18.5833 41.2187 24.75 42.4062C32.4791 43.8906 39.9167 46.9948 46.5885 51.302C46.8698 51.4791 47.1354 51.6718 47.4114 51.8541C44.151 45.875 41.9219 39.1198 41.2969 31.7031C40.7031 24.5833 41.6458 17.1979 44.4219 10.8854C45.6146 8.17704 47.1667 5.5885 49.2448 3.81246C50.6562 2.60413 52.8906 1.14579 54.526 2.56767C55.8073 3.68225 55.901 5.86454 56.1198 7.59371C56.276 8.82288 56.5937 12.3437 58.1354 10.5312C59.0469 9.45829 58.7864 7.07809 58.8385 5.69788C58.9167 3.68746 59.2552 1.30725 60.9219 0.395794C62.8906 -0.677124 65.5937 0.661418 67.3333 1.901C72 5.23954 74.6667 11.6927 76.3073 17.7552C78.3594 25.3541 78.8333 33.401 77.8854 41.2812C77.6823 42.9895 77.4167 44.6823 77.1146 46.3645C82.1354 40.7916 88.1041 36.0833 94.7239 32.6875C100.318 29.8229 106.885 27.4635 112.495 28.6718C114.583 29.125 117.391 30.2239 117.917 32.4062C118.365 34.25 116.828 36.1041 115.396 37.5104C114.411 38.4791 112.474 39.8906 112.292 41.2812C111.984 43.6406 114.802 41.5104 115.823 40.7968C117.245 39.802 118.927 38.401 120.609 38.5989C122.766 38.8541 123.187 41.4895 123.245 43.3437Z" fill="#F51E51"/>
</g>
<path d="M103.333 52.599C103.385 54.3959 102.813 56.3021 102.021 58.0834C100.172 62.2292 96.9948 65.9584 93.2605 68.8177C91.4167 70.2292 89.4896 71.3959 87.5105 72.349C90.573 73.8542 93.4428 75.7292 96.0053 77.9479C99.1303 80.6563 102.188 84.0834 102.833 87.8073C103.068 89.1927 103.089 91.1771 101.885 92.0365C100.87 92.7657 99.3646 92.2813 98.1511 91.7552C97.3125 91.3907 95.9792 90.5521 95.0834 90.7865C93.5678 91.1823 95.5625 92.375 96.2448 92.8229C97.2084 93.4479 98.474 94.125 98.7657 95.2032C99.1407 96.5834 97.6407 97.4896 96.5209 97.9792C94.8698 98.7032 92.8907 98.8802 90.9428 98.8073C86.4063 98.6511 81.7605 97.0938 77.7136 94.6979C72.9167 91.8646 69.224 88.0417 66.4896 83.7761C65.0521 88.5677 62.5834 93.2032 58.823 97.2188C55.6094 100.646 51.5834 103.443 47.2709 104.865C45.4219 105.474 43.4688 105.859 41.6875 105.625C40.474 105.469 38.7761 105.021 38.75 103.594C38.7292 102.474 39.7605 101.469 40.5053 100.599C41.0365 99.9792 42.6146 98.2709 41.0521 98.3177C40.1303 98.349 39.0782 99.5209 38.3803 100.104C37.3646 100.953 36.0469 101.839 34.8698 101.422C33.474 100.932 32.9375 99.0209 32.7813 97.6302C32.3542 93.875 34.3334 89.7292 36.573 86.25C38.4167 83.4063 40.6459 80.8021 43.1667 78.5C41 78.1407 38.8178 77.5573 36.6563 76.7188C32.2709 75.0157 28.1771 72.3282 25.2448 68.8594C23.9844 67.375 22.9011 65.7084 22.448 63.9636C22.1407 62.7813 21.9219 61.0417 23.2396 60.4844C24.2657 60.0469 25.5834 60.625 26.6719 60.9948C27.4428 61.2552 29.6146 62.0782 28.9896 60.6459C28.6198 59.8021 27.1355 59.2657 26.3334 58.8334C25.1667 58.2084 23.8594 57.3229 23.8021 56.0729C23.7292 54.599 25.3021 53.3854 26.5365 52.7188C29.8594 50.9167 34.448 51.2032 38.5105 51.9844C43.5938 52.9636 48.4896 55.0052 52.8803 57.8386C53.0625 57.9532 53.2396 58.0834 53.4219 58.2032C51.2761 54.2657 49.8073 49.8177 49.4011 44.9375C49.0053 40.2552 49.625 35.3907 51.4532 31.2396C52.2396 29.4584 53.2605 27.75 54.6303 26.5782C55.5573 25.7865 57.0261 24.8282 58.1042 25.7604C58.948 26.4948 59.0105 27.9323 59.1511 29.0677C59.2553 29.8802 59.4688 32.1927 60.4792 31C61.0782 30.2969 60.9115 28.7292 60.9428 27.8229C60.9948 26.5 61.2188 24.9323 62.3125 24.3334C63.6146 23.625 65.3907 24.5052 66.5365 25.3229C69.6094 27.5209 71.3646 31.7657 72.4428 35.7604C73.7917 40.7604 74.1042 46.0521 73.4792 51.2448C73.349 52.3646 73.1719 53.4792 72.974 54.5886C76.2813 50.9219 80.2084 47.8229 84.5625 45.5886C88.2448 43.7032 92.5678 42.1459 96.2605 42.9427C97.6355 43.2396 99.4792 43.9636 99.8282 45.4011C100.12 46.6146 99.1146 47.8334 98.1667 48.7604C97.5209 49.4011 96.2448 50.3229 96.125 51.2448C95.9271 52.7969 97.7761 51.3959 98.448 50.9271C99.3855 50.2709 100.495 49.3438 101.599 49.4792C103.021 49.6459 103.297 51.3802 103.333 52.599Z" fill="#FFC5D3"/>
<path d="M72.6459 60.0729C71.2032 59.724 69.7553 60.6146 69.4063 62.0625C69.1251 63.2448 69.6719 64.4271 70.6771 65.0104C69.8594 67.9063 68.349 70.5365 66.2084 72.7969C65.5626 73.474 66.6094 74.4688 67.2501 73.7969C69.573 71.349 71.1823 68.5 72.0573 65.3698C73.2605 65.3542 74.3438 64.5313 74.6355 63.3073C74.9792 61.8646 74.0886 60.4167 72.6459 60.0729ZM61.5105 71.1771C59.2136 71.7396 56.9115 71.7448 54.6928 71.1927C54.6876 70.3125 54.1146 69.5052 53.2292 69.2448C52.1459 68.9323 51.0105 69.5521 50.6928 70.6302C50.3803 71.7136 51.0001 72.8438 52.0782 73.1615C52.9948 73.4323 53.948 73.0261 54.4115 72.2396C56.8021 72.8438 59.2865 72.8542 61.7761 72.2448C62.4584 72.0781 62.198 71.0104 61.5105 71.1771ZM59.9323 61.1459C61.0001 60.6563 61.6719 59.5104 61.5001 58.2865C61.2917 56.7917 59.9115 55.75 58.4167 55.9584C56.9219 56.1667 55.8803 57.5469 56.0886 59.0417C56.2657 60.3073 57.2813 61.2448 58.4948 61.375C59.0834 64.6302 60.4376 67.6719 62.5469 70.3698C63.1303 71.1146 64.2865 70.2084 63.7032 69.4584C61.7501 66.9688 60.4792 64.1615 59.9323 61.1459ZM65.724 66.4584C66.0261 67.3594 64.6355 67.8334 64.3334 66.9375C63.2292 63.6927 62.9584 60.375 63.4792 57.1146C62.3803 56.5886 61.7292 55.3646 61.9792 54.1146C62.2761 52.6354 63.7136 51.6771 65.1928 51.9688C66.6719 52.2656 67.6303 53.7084 67.3334 55.1875C67.0938 56.4011 66.0834 57.2604 64.9115 57.3698C64.4323 60.3906 64.7084 63.4636 65.724 66.4584Z" fill="white"/>
<path d="M136.79 56.2181C137.457 55.2494 138.254 53.989 139.186 52.4473C140.113 50.9056 141.004 49.3327 141.853 47.7181L151.478 29.2806C152.311 27.6036 152.957 26.0098 153.415 24.5098C153.874 22.9994 154.186 21.7546 154.353 20.7806H166.749C166.983 21.9369 167.332 23.2911 167.79 24.8431C168.249 26.3848 168.816 27.8536 169.499 29.239L179.207 47.7181C180.051 49.3744 180.926 50.9629 181.832 52.489C182.749 54.0046 183.545 55.2494 184.228 56.2181H174.29C174.191 55.5411 173.978 54.7598 173.644 53.8848C173.311 53.0098 172.769 51.9161 172.019 50.5931L170.561 47.9056H150.457L148.978 50.6556C148.379 51.9369 147.874 53.0098 147.457 53.8848C147.051 54.7598 146.801 55.5411 146.707 56.2181H136.79ZM153.394 41.8848H167.624L162.915 32.8223C162.467 31.8796 162.082 30.9629 161.749 30.0723C161.415 29.1869 161.072 28.2494 160.728 27.2598H160.269C159.936 28.2754 159.592 29.2181 159.249 30.0931C158.915 30.9681 158.509 31.9004 158.04 32.8848L153.394 41.8848Z" fill="#E2E2E2"/>
<path d="M190.095 56.2181C190.356 55.2494 190.58 54.0202 190.762 52.5306C190.955 51.0463 191.054 49.4421 191.054 47.7181V29.2806C191.054 25.7129 190.731 22.8796 190.095 20.7806H199.262L222.804 45.6348H223.45V29.1348C223.45 27.3848 223.351 25.7598 223.158 24.2598C222.976 22.7494 222.767 21.5879 222.533 20.7806H232.262C231.997 21.7546 231.773 22.9838 231.595 24.4681C231.429 25.9577 231.345 27.5619 231.345 29.2806V56.2181H224.116L199.512 30.5515H198.908V47.1556C198.908 48.9056 198.997 50.6348 199.179 52.3431C199.356 54.0515 199.564 55.3431 199.804 56.2181H190.095Z" fill="#E2E2E2"/>
<path d="M242.844 56.2181C243.146 55.2494 243.375 54.0202 243.531 52.5306C243.682 51.0463 243.76 49.4421 243.76 47.7181V29.2806C243.76 27.5619 243.666 25.9577 243.489 24.4681C243.323 22.9838 243.104 21.7546 242.844 20.7806H252.552C252.286 21.7546 252.073 22.9838 251.906 24.4681C251.739 25.9577 251.656 27.5619 251.656 29.2806V47.7181C251.656 49.4421 251.739 51.0463 251.906 52.5306C252.073 54.0202 252.286 55.2494 252.552 56.2181H242.844Z" fill="#E2E2E2"/>
<path d="M263.194 56.2181C263.455 55.2494 263.673 54.0202 263.84 52.5306C264.017 51.0463 264.111 49.4421 264.111 47.7181V29.2806C264.111 27.5619 264.033 25.9577 263.882 24.4681C263.725 22.9838 263.496 21.7546 263.194 20.7806H273.777L283.736 38.7598C284.553 40.2077 285.303 41.5879 285.986 42.9056C286.678 44.2286 287.402 45.7286 288.152 47.4056H288.715C289.449 45.7546 290.152 44.2806 290.819 42.989C291.496 41.6869 292.262 40.2754 293.111 38.7598L303.132 20.7806H313.465C313.158 21.7546 312.928 22.9838 312.777 24.4681C312.621 25.9577 312.548 27.5619 312.548 29.2806V47.7181C312.548 49.4421 312.632 51.0463 312.798 52.5306C312.965 54.0202 313.184 55.2494 313.465 56.2181H303.736C304.012 55.3015 304.236 54.0619 304.402 52.489C304.569 50.9213 304.652 49.2598 304.652 47.5098V30.6556H304.09L289.715 56.2181H286.777L272.402 30.6556H272.007V47.5098C272.007 49.2598 272.095 50.9213 272.277 52.489C272.455 54.0619 272.663 55.3015 272.902 56.2181H263.194Z" fill="#E2E2E2"/>
<path d="M324.041 56.2181C324.677 54.1244 325 51.2911 325 47.7181V29.2806C325 27.5619 324.901 25.9577 324.708 24.4681C324.526 22.9838 324.302 21.7546 324.041 20.7806H358.708L359.979 28.4265C359.406 28.1504 358.552 27.9265 357.416 27.7598C356.291 27.5931 354.854 27.5098 353.104 27.5098H332.854V35.1556H349.145C351.479 35.1556 353.25 35.0619 354.458 34.864V42.0515C353.25 41.8431 351.479 41.739 349.145 41.739H332.854V49.489H353.458C355.442 49.489 357.041 49.3744 358.25 49.1348C359.468 48.9004 360.448 48.5827 361.187 48.1765L359.729 56.2181H324.041Z" fill="#E2E2E2"/>
<path d="M153.248 105.774C153.509 104.764 153.728 103.524 153.894 102.066C154.061 100.597 154.144 98.9981 154.144 97.2742V77.2117H145.353C143.686 77.2117 142.337 77.2846 141.311 77.42C140.28 77.5606 139.332 77.7846 138.457 78.0867L140.019 70.3367H176.123L177.686 78.0867C176.853 77.8106 175.905 77.5971 174.853 77.4408C173.811 77.2898 172.462 77.2117 170.811 77.2117H162.04V97.2742C162.04 98.9981 162.113 100.597 162.269 102.066C162.42 103.524 162.649 104.764 162.957 105.774H153.248Z" fill="#E2E2E2"/>
<path d="M198.039 105.774C197.8 104.566 197.42 103.206 196.894 101.691C196.378 100.165 195.831 98.7065 195.248 97.3158L185.581 78.8367C184.841 77.1179 184.081 75.5138 183.289 74.0242C182.498 72.5398 181.758 71.3106 181.081 70.3367H191.102C191.196 71.045 191.373 71.8575 191.623 72.7742C191.883 73.6804 192.321 74.8054 192.935 76.1492L201.727 93.4825C202.144 94.4304 202.539 95.3315 202.914 96.1908C203.3 97.0398 203.67 97.9408 204.019 98.8992H204.414C204.789 97.9148 205.144 97.0033 205.477 96.17C205.821 95.3263 206.211 94.4304 206.644 93.4825L215.456 76.1492C216.024 74.8054 216.44 73.6804 216.706 72.7742C216.982 71.8575 217.19 71.045 217.331 70.3367H227.039C226.331 71.3106 225.591 72.5398 224.831 74.0242C224.081 75.5138 223.315 77.1179 222.539 78.8367L212.873 97.2742C212.133 98.9565 211.519 100.54 211.019 102.024C210.529 103.514 210.206 104.764 210.039 105.774H198.039Z" fill="#E2E2E2"/>
</svg>
